<svg xmlns="http://www.w3.org/2000/svg" xmlns:xlink="http://www.w3.org/1999/xlink" version="1.1" width="595.2" height="841.92" viewBox="0 0 595.2 841.92">
<defs>
<clipPath id="clip_1134">
<path transform="matrix(1,0,0,-1,0,841.92)" d="M.000008869 0H595.2V841.92H.000008869Z" fill-rule="evenodd"/>
</clipPath>
<clipPath id="clip_1135">
<path transform="matrix(1,0,0,-1,0,841.92)" d="M.000008869 0H595.2V841.92H.000008869Z" fill-rule="evenodd"/>
</clipPath>
<clipPath id="clip_1136">
<path transform="matrix(1,0,0,-1,0,841.92)" d="M.000008869 0H595.2V841.92H.000008869Z" fill-rule="evenodd"/>
</clipPath>
<clipPath id="clip_1137">
<path transform="matrix(1,0,0,-1,0,841.92)" d="M.000008869 0H595.2V841.92H.000008869Z" fill-rule="evenodd"/>
</clipPath>
<clipPath id="clip_1138">
<path transform="matrix(1,0,0,-1,0,841.92)" d="M.000008869 0H595.2V841.92H.000008869Z" fill-rule="evenodd"/>
</clipPath>
<clipPath id="clip_1139">
<path transform="matrix(1,0,0,-1,0,841.92)" d="M.000008869 0H595.2V841.92H.000008869Z" fill-rule="evenodd"/>
</clipPath>
<clipPath id="clip_1140">
<path transform="matrix(1,0,0,-1,0,841.92)" d="M.000008869 0H595.2V841.92H.000008869Z" fill-rule="evenodd"/>
</clipPath>
<clipPath id="clip_1141">
<path transform="matrix(1,0,0,-1,0,841.92)" d="M.000008869 0H595.2V841.92H.000008869Z" fill-rule="evenodd"/>
</clipPath>
<clipPath id="clip_1142">
<path transform="matrix(1,0,0,-1,0,841.92)" d="M.000008869 0H595.2V841.92H.000008869Z" fill-rule="evenodd"/>
</clipPath>
<clipPath id="clip_1143">
<path transform="matrix(1,0,0,-1,0,841.92)" d="M.000008869 0H595.2V841.92H.000008869Z" fill-rule="evenodd"/>
</clipPath>
<clipPath id="clip_1144">
<path transform="matrix(1,0,0,-1,0,841.92)" d="M.000008869 0H595.2V841.92H.000008869Z" fill-rule="evenodd"/>
</clipPath>
<clipPath id="clip_1145">
<path transform="matrix(1,0,0,-1,0,841.92)" d="M.000008869 0H595.2V841.92H.000008869Z" fill-rule="evenodd"/>
</clipPath>
<clipPath id="clip_1146">
<path transform="matrix(1,0,0,-1,0,841.92)" d="M.000008869 0H595.2V841.92H.000008869Z" fill-rule="evenodd"/>
</clipPath>
<clipPath id="clip_1147">
<path transform="matrix(1,0,0,-1,0,841.92)" d="M.000008869 0H595.2V841.92H.000008869Z" fill-rule="evenodd"/>
</clipPath>
<clipPath id="clip_1148">
<path transform="matrix(1,0,0,-1,0,841.92)" d="M.000008869 0H595.2V841.92H.000008869Z" fill-rule="evenodd"/>
</clipPath>
<clipPath id="clip_1149">
<path transform="matrix(1,0,0,-1,0,841.92)" d="M.000008869 0H595.2V841.92H.000008869Z" fill-rule="evenodd"/>
</clipPath>
<clipPath id="clip_1150">
<path transform="matrix(1,0,0,-1,0,841.92)" d="M.000008869 0H595.2V841.92H.000008869Z" fill-rule="evenodd"/>
</clipPath>
<clipPath id="clip_1151">
<path transform="matrix(1,0,0,-1,0,841.92)" d="M.000008869 0H595.2V841.92H.000008869Z" fill-rule="evenodd"/>
</clipPath>
<clipPath id="clip_1152">
<path transform="matrix(1,0,0,-1,0,841.92)" d="M146.69 759.1H538.78V785.25997H146.69Z" fill-rule="evenodd"/>
</clipPath>
<clipPath id="clip_1153">
<path transform="matrix(1,0,0,-1,0,841.92)" d="M146.69 759.1H538.78V785.25997H146.69Z" fill-rule="evenodd"/>
</clipPath>
<clipPath id="clip_1154">
<path transform="matrix(1,0,0,-1,0,841.92)" d="M146.69 759.1H538.78V785.25997H146.69Z" fill-rule="evenodd"/>
</clipPath>
<clipPath id="clip_1155">
<path transform="matrix(1,0,0,-1,0,841.92)" d="M146.69 759.1H538.78V785.25997H146.69Z" fill-rule="evenodd"/>
</clipPath>
<clipPath id="clip_1156">
<path transform="matrix(1,0,0,-1,0,841.92)" d="M146.69 759.1H538.78V785.25997H146.69Z" fill-rule="evenodd"/>
</clipPath>
<clipPath id="clip_1157">
<path transform="matrix(1,0,0,-1,0,841.92)" d="M146.69 759.1H538.78V785.25997H146.69Z" fill-rule="evenodd"/>
</clipPath>
<clipPath id="clip_1158">
<path transform="matrix(1,0,0,-1,0,841.92)" d="M146.69 759.1H538.78V785.25997H146.69Z" fill-rule="evenodd"/>
</clipPath>
<clipPath id="clip_1159">
<path transform="matrix(1,0,0,-1,0,841.92)" d="M146.69 759.1H538.78V785.25997H146.69Z" fill-rule="evenodd"/>
</clipPath>
<clipPath id="clip_1160">
<path transform="matrix(1,0,0,-1,0,841.92)" d="M146.69 759.1H538.78V785.25997H146.69Z" fill-rule="evenodd"/>
</clipPath>
<clipPath id="clip_1161">
<path transform="matrix(1,0,0,-1,0,841.92)" d="M146.69 759.1H538.78V785.25997H146.69Z" fill-rule="evenodd"/>
</clipPath>
<clipPath id="clip_1162">
<path transform="matrix(1,0,0,-1,0,841.92)" d="M146.69 759.1H538.78V785.25997H146.69Z" fill-rule="evenodd"/>
</clipPath>
<clipPath id="clip_1163">
<path transform="matrix(1,0,0,-1,0,841.92)" d="M146.69 759.1H538.78V785.25997H146.69Z" fill-rule="evenodd"/>
</clipPath>
<clipPath id="clip_1164">
<path transform="matrix(1,0,0,-1,0,841.92)" d="M146.69 759.1H538.78V785.25997H146.69Z" fill-rule="evenodd"/>
</clipPath>
<clipPath id="clip_1165">
<path transform="matrix(1,0,0,-1,0,841.92)" d="M146.69 759.1H538.78V785.25997H146.69Z" fill-rule="evenodd"/>
</clipPath>
<clipPath id="clip_1166">
<path transform="matrix(1,0,0,-1,0,841.92)" d="M146.69 759.1H538.78V785.25997H146.69Z" fill-rule="evenodd"/>
</clipPath>
<clipPath id="clip_1167">
<path transform="matrix(1,0,0,-1,0,841.92)" d="M146.69 759.1H538.78V785.25997H146.69Z" fill-rule="evenodd"/>
</clipPath>
<clipPath id="clip_1168">
<path transform="matrix(1,0,0,-1,0,841.92)" d="M146.69 759.1H538.78V785.25997H146.69Z" fill-rule="evenodd"/>
</clipPath>
<clipPath id="clip_1169">
<path transform="matrix(1,0,0,-1,0,841.92)" d="M146.69 759.1H538.78V785.25997H146.69Z" fill-rule="evenodd"/>
</clipPath>
<clipPath id="clip_1170">
<path transform="matrix(1,0,0,-1,0,841.92)" d="M146.69 759.1H538.78V785.25997H146.69Z" fill-rule="evenodd"/>
</clipPath>
<clipPath id="clip_1171">
<path transform="matrix(1,0,0,-1,0,841.92)" d="M146.69 759.1H538.78V785.25997H146.69Z" fill-rule="evenodd"/>
</clipPath>
<clipPath id="clip_1172">
<path transform="matrix(1,0,0,-1,0,841.92)" d="M146.69 759.1H538.78V785.25997H146.69Z" fill-rule="evenodd"/>
</clipPath>
<clipPath id="clip_1173">
<path transform="matrix(1,0,0,-1,0,841.92)" d="M146.69 759.1H538.78V785.25997H146.69Z" fill-rule="evenodd"/>
</clipPath>
<clipPath id="clip_1174">
<path transform="matrix(1,0,0,-1,0,841.92)" d="M146.69 759.1H538.78V785.25997H146.69Z" fill-rule="evenodd"/>
</clipPath>
<clipPath id="clip_1175">
<path transform="matrix(1,0,0,-1,0,841.92)" d="M146.69 759.1H538.78V785.25997H146.69Z" fill-rule="evenodd"/>
</clipPath>
<clipPath id="clip_1176">
<path transform="matrix(1,0,0,-1,0,841.92)" d="M146.69 759.1H538.78V785.25997H146.69Z" fill-rule="evenodd"/>
</clipPath>
<clipPath id="clip_1177">
<path transform="matrix(1,0,0,-1,0,841.92)" d="M146.69 759.1H538.78V785.25997H146.69Z" fill-rule="evenodd"/>
</clipPath>
<clipPath id="clip_1178">
<path transform="matrix(1,0,0,-1,0,841.92)" d="M146.69 759.1H538.78V785.25997H146.69Z" fill-rule="evenodd"/>
</clipPath>
<clipPath id="clip_1179">
<path transform="matrix(1,0,0,-1,0,841.92)" d="M146.69 759.1H538.78V785.25997H146.69Z" fill-rule="evenodd"/>
</clipPath>
<clipPath id="clip_1180">
<path transform="matrix(1,0,0,-1,0,841.92)" d="M146.69 759.1H538.78V785.25997H146.69Z" fill-rule="evenodd"/>
</clipPath>
<clipPath id="clip_1181">
<path transform="matrix(1,0,0,-1,0,841.92)" d="M146.69 759.1H538.78V785.25997H146.69Z" fill-rule="evenodd"/>
</clipPath>
<clipPath id="clip_1182">
<path transform="matrix(1,0,0,-1,0,841.92)" d="M146.69 759.1H538.78V785.25997H146.69Z" fill-rule="evenodd"/>
</clipPath>
<clipPath id="clip_1183">
<path transform="matrix(1,0,0,-1,0,841.92)" d="M146.69 759.1H538.78V785.25997H146.69Z" fill-rule="evenodd"/>
</clipPath>
<clipPath id="clip_1184">
<path transform="matrix(1,0,0,-1,0,841.92)" d="M146.69 759.1H538.78V785.25997H146.69Z" fill-rule="evenodd"/>
</clipPath>
<clipPath id="clip_1185">
<path transform="matrix(1,0,0,-1,0,841.92)" d="M146.69 759.1H538.78V785.25997H146.69Z" fill-rule="evenodd"/>
</clipPath>
<clipPath id="clip_1186">
<path transform="matrix(1,0,0,-1,0,841.92)" d="M146.69 759.1H538.78V785.25997H146.69Z" fill-rule="evenodd"/>
</clipPath>
<clipPath id="clip_1187">
<path transform="matrix(1,0,0,-1,0,841.92)" d="M146.69 759.1H538.78V785.25997H146.69Z" fill-rule="evenodd"/>
</clipPath>
<clipPath id="clip_1188">
<path transform="matrix(1,0,0,-1,0,841.92)" d="M146.69 759.1H538.78V785.25997H146.69Z" fill-rule="evenodd"/>
</clipPath>
<clipPath id="clip_1189">
<path transform="matrix(1,0,0,-1,0,841.92)" d="M146.69 759.1H538.78V785.25997H146.69Z" fill-rule="evenodd"/>
</clipPath>
<clipPath id="clip_1190">
<path transform="matrix(1,0,0,-1,0,841.92)" d="M146.69 759.1H538.78V785.25997H146.69Z" fill-rule="evenodd"/>
</clipPath>
<clipPath id="clip_1191">
<path transform="matrix(1,0,0,-1,0,841.92)" d="M146.69 759.1H538.78V785.25997H146.69Z" fill-rule="evenodd"/>
</clipPath>
<clipPath id="clip_1192">
<path transform="matrix(1,0,0,-1,0,841.92)" d="M146.69 759.1H538.78V785.25997H146.69Z" fill-rule="evenodd"/>
</clipPath>
<clipPath id="clip_1193">
<path transform="matrix(1,0,0,-1,0,841.92)" d="M.000008869 0H595.2V841.92H.000008869Z" fill-rule="evenodd"/>
</clipPath>
</defs>
<g>
<g clip-path="url(#clip_1134)">
<text fill="#c8c8c8" xml:space="preserve" transform="matrix(1 0 -0 1 0 841.92)" font-size="7.92" font-family="Arial"><tspan y="-46.104" x="56.664 63.863286 68.17176 72.48816 75.60072 79.91712">&#x0428;&#x0432;&#x0430;&#x0433;&#x0438;&#x043d;</tspan></text>
</g>
<g clip-path="url(#clip_1135)">
<text fill="#c8c8c8" xml:space="preserve" transform="matrix(1 0 -0 1 0 841.92)" font-size="7.92" font-family="Arial"><tspan y="-46.104" x="84.264"> </tspan></text>
</g>
<g clip-path="url(#clip_1136)">
<text fill="#c8c8c8" xml:space="preserve" transform="matrix(1 0 -0 1 0 841.92)" font-size="7.92" font-family="Arial"><tspan y="-46.104" x="86.424 90.978008 95.2944 99.8484 102.96096 107.27736 111.59376 116.14775">&#x0413;&#x0440;&#x0438;&#x0433;&#x043e;&#x0440;&#x0438;&#x0439;</tspan></text>
</g>
<g clip-path="url(#clip_1137)">
<text fill="#c8c8c8" xml:space="preserve" transform="matrix(1 0 -0 1 0 841.92)" font-size="7.92" font-family="Arial"><tspan y="-46.104" x="120.77 124.13176">  </tspan></text>
</g>
<g clip-path="url(#clip_1138)">
<text fill="#c8c8c8" xml:space="preserve" transform="matrix(1 0 -0 1 0 841.92)" font-size="7.92" font-family="Arial"><tspan y="-46.104" x="127.49">&#x2022;</tspan></text>
</g>
<g clip-path="url(#clip_1139)">
<text fill="#c8c8c8" xml:space="preserve" transform="matrix(1 0 -0 1 0 841.92)" font-size="7.92" font-family="Arial"><tspan y="-46.104" x="130.61 133.97176">  </tspan></text>
</g>
<g clip-path="url(#clip_1140)">
<text fill="#c8c8c8" xml:space="preserve" transform="matrix(1 0 -0 1 0 841.92)" font-size="7.92" font-family="Arial"><tspan y="-46.104" x="137.57 143.08232 147.16112 150.76473 156.76016 162.51009">&#x0420;&#x0435;&#x0437;&#x044e;&#x043c;&#x0435;</tspan></text>
</g>
<g clip-path="url(#clip_1141)">
<text fill="#c8c8c8" xml:space="preserve" transform="matrix(1 0 -0 1 0 841.92)" font-size="7.92" font-family="Arial"><tspan y="-46.104" x="166.87"> </tspan></text>
</g>
<g clip-path="url(#clip_1142)">
<text fill="#c8c8c8" xml:space="preserve" transform="matrix(1 0 -0 1 0 841.92)" font-size="7.92" font-family="Arial"><tspan y="-46.104" x="169.27 173.58641 178.12458 182.70233 187.01874 191.32723 196.11882 200.43523 204.98923">&#x043e;&#x0431;&#x043d;&#x043e;&#x0432;&#x043b;&#x0435;&#x043d;&#x043e;</tspan></text>
</g>
<g clip-path="url(#clip_1143)">
<text fill="#c8c8c8" xml:space="preserve" transform="matrix(1 0 -0 1 0 841.92)" font-size="7.92" font-family="Arial"><tspan y="-46.104" x="209.35"> </tspan></text>
</g>
<g clip-path="url(#clip_1144)">
<text fill="#c8c8c8" xml:space="preserve" transform="matrix(1 0 -0 1 0 841.92)" font-size="7.92" font-family="Arial"><tspan y="-46.104" x="211.51 216.064 220.3804">24 </tspan></text>
</g>
<g clip-path="url(#clip_1145)">
<text fill="#c8c8c8" xml:space="preserve" transform="matrix(1 0 -0 1 0 841.92)" font-size="7.92" font-family="Arial"><tspan y="-46.104" x="222.82 227.1364 233.13184 237.44824">&#x0438;&#x044e;&#x043d;&#x044f;</tspan></text>
</g>
<g clip-path="url(#clip_1146)">
<text fill="#c8c8c8" xml:space="preserve" transform="matrix(1 0 -0 1 0 841.92)" font-size="7.92" font-family="Arial"><tspan y="-46.104" x="241.78"> </tspan></text>
</g>
<g clip-path="url(#clip_1147)">
<text fill="#c8c8c8" xml:space="preserve" transform="matrix(1 0 -0 1 0 841.92)" font-size="7.92" font-family="Arial"><tspan y="-46.104" x="244.18 248.4964 253.0504 257.3668 261.9208">2024 </tspan></text>
</g>
<g clip-path="url(#clip_1148)">
<text fill="#c8c8c8" xml:space="preserve" transform="matrix(1 0 -0 1 0 841.92)" font-size="7.92" font-family="Arial"><tspan y="-46.104" x="264.1">&#x0432;</tspan></text>
</g>
<g clip-path="url(#clip_1149)">
<text fill="#c8c8c8" xml:space="preserve" transform="matrix(1 0 -0 1 0 841.92)" font-size="7.92" font-family="Arial"><tspan y="-46.104" x="268.42"> </tspan></text>
</g>
<g clip-path="url(#clip_1150)">
<text fill="#c8c8c8" xml:space="preserve" transform="matrix(1 0 -0 1 0 841.92)" font-size="7.92" font-family="Arial"><tspan y="-46.104" x="270.58 275.134 279.4504 281.61256 286.16658">15:18</tspan></text>
</g>
<g clip-path="url(#clip_1151)">
<text xml:space="preserve" transform="matrix(1 0 -0 1 0 841.92)" font-size="11.04" font-family="Calibri"><tspan y="-46.104" x="290.76"> </tspan></text>
</g>
<g clip-path="url(#clip_1152)">
<g clip-path="url(#clip_1153)">
<text xml:space="preserve" transform="matrix(1 0 -0 1 0 841.92)" font-size="9.12" font-family="Arial"><tspan y="-774.46" x="146.69">&#x042f;</tspan></text>
</g>
<g clip-path="url(#clip_1154)">
<text xml:space="preserve" transform="matrix(1 0 -0 1 0 841.92)" font-size="9.12" font-family="Arial"><tspan y="-774.46" x="153.17"> </tspan></text>
</g>
<g clip-path="url(#clip_1155)">
<text xml:space="preserve" transform="matrix(1 0 -0 1 0 841.92)" font-size="9.12" font-family="Arial"><tspan y="-774.46" x="155.83">-</tspan></text>
</g>
<g clip-path="url(#clip_1156)">
<text xml:space="preserve" transform="matrix(1 0 -0 1 0 841.92)" font-size="9.12" font-family="Arial"><tspan y="-774.46" x="158.71"> </tspan></text>
</g>
<g clip-path="url(#clip_1157)">
<text xml:space="preserve" transform="matrix(1 0 -0 1 0 841.92)" font-size="9.12" font-family="Arial"><tspan y="-774.46" x="161.35 163.74857 166.85849 171.90186 176.69898 179.32553 184.12265 189.16602 194.20938">frontend </tspan></text>
</g>
<g clip-path="url(#clip_1158)">
<text xml:space="preserve" transform="matrix(1 0 -0 1 0 841.92)" font-size="9.12" font-family="Arial"><tspan y="-774.46" x="196.87 201.91336 206.95673 211.03336 216.07672 220.87384 226.14519 231.18856 235.26519 240.05319 244.85031">&#x0440;&#x0430;&#x0437;&#x0440;&#x0430;&#x0431;&#x043e;&#x0442;&#x0447;&#x0438;&#x043a;</tspan></text>
</g>
<g clip-path="url(#clip_1159)">
<text xml:space="preserve" transform="matrix(1 0 -0 1 0 841.92)" font-size="9.12" font-family="Arial"><tspan y="-774.46" x="248.98"> </tspan></text>
</g>
<g clip-path="url(#clip_1160)">
<text xml:space="preserve" transform="matrix(1 0 -0 1 0 841.92)" font-size="9.12" font-family="Arial"><tspan y="-774.46" x="251.38 254.48993 259.04994 264.09327 268.89039 272.0003 274.39888">(vue), </tspan></text>
</g>
<g clip-path="url(#clip_1161)">
<text xml:space="preserve" transform="matrix(1 0 -0 1 0 841.92)" font-size="9.12" font-family="Arial"><tspan y="-774.46" x="277.06">&#x0432;</tspan></text>
</g>
<g clip-path="url(#clip_1162)">
<text xml:space="preserve" transform="matrix(1 0 -0 1 0 841.92)" font-size="9.12" font-family="Arial"><tspan y="-774.46" x="281.64"> </tspan></text>
</g>
<g clip-path="url(#clip_1163)">
<text xml:space="preserve" transform="matrix(1 0 -0 1 0 841.92)" font-size="9.12" font-family="Arial"><tspan y="-774.46" x="284.28 288.84 293.63713 298.67137 302.75715 307.79139 312.83476 317.87809">&#x0441;&#x0435;&#x043d;&#x0442;&#x044f;&#x0431;&#x0440;&#x0435;</tspan></text>
</g>
<g clip-path="url(#clip_1164)">
<text xml:space="preserve" transform="matrix(1 0 -0 1 0 841.92)" font-size="9.12" font-family="Arial"><tspan y="-774.46" x="322.68"> </tspan></text>
</g>
<g clip-path="url(#clip_1165)">
<text xml:space="preserve" transform="matrix(1 0 -0 1 0 841.92)" font-size="9.12" font-family="Arial"><tspan y="-774.46" x="325.32 330.36003 335.40003 340.44004 345.48005">2022 </tspan></text>
</g>
<g clip-path="url(#clip_1166)">
<text xml:space="preserve" transform="matrix(1 0 -0 1 0 841.92)" font-size="9.12" font-family="Arial"><tspan y="-774.46" x="347.9 351.24705 356.29039 361.57087">&#x0433;&#x043e;&#x0434;&#x0430;</tspan></text>
</g>
<g clip-path="url(#clip_1167)">
<text xml:space="preserve" transform="matrix(1 0 -0 1 0 841.92)" font-size="9.12" font-family="Arial"><tspan y="-774.46" x="366.38"> </tspan></text>
</g>
<g clip-path="url(#clip_1168)">
<text xml:space="preserve" transform="matrix(1 0 -0 1 0 841.92)" font-size="9.12" font-family="Arial"><tspan y="-774.46" x="369.02 374.05424 378.86048 383.64848 388.4456">&#x043d;&#x0430;&#x0447;&#x0430;&#x043b;</tspan></text>
</g>
<g clip-path="url(#clip_1169)">
<text xml:space="preserve" transform="matrix(1 0 -0 1 0 841.92)" font-size="9.12" font-family="Arial"><tspan y="-774.46" x="393.74"> </tspan></text>
</g>
<g clip-path="url(#clip_1170)">
<text xml:space="preserve" transform="matrix(1 0 -0 1 0 841.92)" font-size="9.12" font-family="Arial"><tspan y="-774.46" x="396.38 399.72706 405.00755 409.3304 414.60179 419.3989 423.46644">&#x0433;&#x043b;&#x0443;&#x0431;&#x043e;&#x043a;&#x043e;</tspan></text>
</g>
<g clip-path="url(#clip_1171)">
<text xml:space="preserve" transform="matrix(1 0 -0 1 0 841.92)" font-size="9.12" font-family="Arial"><tspan y="-774.46" x="428.57"> </tspan></text>
</g>
<g clip-path="url(#clip_1172)">
<text xml:space="preserve" transform="matrix(1 0 -0 1 0 841.92)" font-size="9.12" font-family="Arial"><tspan y="-774.46" x="430.97 436.00425 440.80137 444.1484 449.19175 453.51463 459.7436 464.78694 468.62648 473.41447 477.97447">&#x043f;&#x043e;&#x0433;&#x0440;&#x0443;&#x0436;&#x0430;&#x0442;&#x044c;&#x0441;&#x044f;</tspan></text>
</g>
<g clip-path="url(#clip_1173)">
<text xml:space="preserve" transform="matrix(1 0 -0 1 0 841.92)" font-size="9.12" font-family="Arial"><tspan y="-774.46" x="482.83"> </tspan></text>
</g>
<g clip-path="url(#clip_1174)">
<text xml:space="preserve" transform="matrix(1 0 -0 1 0 841.92)" font-size="9.12" font-family="Arial"><tspan y="-774.46" x="485.47">&#x0432;</tspan></text>
</g>
<g clip-path="url(#clip_1175)">
<text xml:space="preserve" transform="matrix(1 0 -0 1 0 841.92)" font-size="9.12" font-family="Arial"><tspan y="-774.46" x="490.03"> </tspan></text>
</g>
<g clip-path="url(#clip_1176)">
<text xml:space="preserve" transform="matrix(1 0 -0 1 0 841.92)" font-size="9.12" font-family="Arial"><tspan y="-774.46" x="492.67 497.9505 502.99385 508.02809 512.8343 517.15719">&#x0434;&#x0430;&#x043d;&#x043d;&#x0443;&#x044e;</tspan></text>
</g>
<g clip-path="url(#clip_1177)">
<text xml:space="preserve" transform="matrix(1 0 -0 1 0 841.92)" font-size="9.12" font-family="Arial"><tspan y="-774.46" x="524.11"> </tspan></text>
</g>
<g clip-path="url(#clip_1178)">
<text xml:space="preserve" transform="matrix(1 0 -0 1 0 841.92)" font-size="9.12" font-family="Arial"><tspan y="-761.5" x="146.69 151.72425 156.76761 161.81098 169.2529 174.05002 178.61002 183.17002 187.96714">&#x043f;&#x0440;&#x043e;&#x0444;&#x0435;&#x0441;&#x0441;&#x0438;&#x044e;</tspan></text>
</g>
<g clip-path="url(#clip_1179)">
<text xml:space="preserve" transform="matrix(1 0 -0 1 0 841.92)" font-size="9.12" font-family="Arial"><tspan y="-761.5" x="194.95 197.35036">. </tspan></text>
</g>
<g clip-path="url(#clip_1180)">
<text xml:space="preserve" transform="matrix(1 0 -0 1 0 841.92)" font-size="9.12" font-family="Arial"><tspan y="-761.5" x="199.99 206.47432 211.27144 216.3148 221.10282 226.14618">&#x0421;&#x0435;&#x0439;&#x0447;&#x0430;&#x0441;</tspan></text>
</g>
<g clip-path="url(#clip_1181)">
<text xml:space="preserve" transform="matrix(1 0 -0 1 0 841.92)" font-size="9.12" font-family="Arial"><tspan y="-761.5" x="230.74"> </tspan></text>
</g>
<g clip-path="url(#clip_1182)">
<text xml:space="preserve" transform="matrix(1 0 -0 1 0 841.92)" font-size="9.12" font-family="Arial"><tspan y="-761.5" x="233.14 238.17998 245.62764">&#x0438;&#x0449;&#x0443;</tspan></text>
</g>
<g clip-path="url(#clip_1183)">
<text xml:space="preserve" transform="matrix(1 0 -0 1 0 841.92)" font-size="9.12" font-family="Arial"><tspan y="-761.5" x="249.94"> </tspan></text>
</g>
<g clip-path="url(#clip_1184)">
<text xml:space="preserve" transform="matrix(1 0 -0 1 0 841.92)" font-size="9.12" font-family="Arial"><tspan y="-761.5" x="252.58 257.62336 262.6667 267.93806 272.98139 276.82093">&#x0440;&#x0430;&#x0431;&#x043e;&#x0442;&#x0443;</tspan></text>
</g>
<g clip-path="url(#clip_1185)">
<text xml:space="preserve" transform="matrix(1 0 -0 1 0 841.92)" font-size="9.12" font-family="Arial"><tspan y="-761.5" x="281.38"> </tspan></text>
</g>
<g clip-path="url(#clip_1186)">
<text xml:space="preserve" transform="matrix(1 0 -0 1 0 841.92)" font-size="9.12" font-family="Arial"><tspan y="-761.5" x="283.8 286.42655 289.53648 294.3336 299.37693 302.00349 306.8006 311.84394">frontend</tspan></text>
</g>
<g clip-path="url(#clip_1187)">
<text xml:space="preserve" transform="matrix(1 0 -0 1 0 841.92)" font-size="9.12" font-family="Arial"><tspan y="-761.5" x="316.92">-</tspan></text>
</g>
<g clip-path="url(#clip_1188)">
<text xml:space="preserve" transform="matrix(1 0 -0 1 0 841.92)" font-size="9.12" font-family="Arial"><tspan y="-761.5" x="319.8"> </tspan></text>
</g>
<g clip-path="url(#clip_1189)">
<text xml:space="preserve" transform="matrix(1 0 -0 1 0 841.92)" font-size="9.12" font-family="Arial"><tspan y="-761.5" x="322.44 327.48335 332.52668 336.60334 341.64668 346.4438 351.71516 356.75849 360.83515 365.62315 370.42027 374.4878">&#x0440;&#x0430;&#x0437;&#x0440;&#x0430;&#x0431;&#x043e;&#x0442;&#x0447;&#x0438;&#x043a;&#x0430;</tspan></text>
</g>
<g clip-path="url(#clip_1190)">
<text xml:space="preserve" transform="matrix(1 0 -0 1 0 841.92)" font-size="9.12" font-family="Arial"><tspan y="-761.5" x="379.58"> </tspan></text>
</g>
<g clip-path="url(#clip_1191)">
<text xml:space="preserve" transform="matrix(1 0 -0 1 0 841.92)" font-size="9.12" font-family="Arial"><tspan y="-761.5" x="381.98 385.08995 389.4128 394.45616 399.25328 402.3632">(vue).</tspan></text>
</g>
<g clip-path="url(#clip_1192)">
<text xml:space="preserve" transform="matrix(1 0 -0 1 0 841.92)" font-size="12" font-family="Arial"><tspan y="-761.5" x="405.02"> </tspan></text>
</g>
</g>
<g clip-path="url(#clip_1193)">
<text xml:space="preserve" transform="matrix(1 0 -0 1 0 841.92)" font-size="11.04" font-family="Calibri"><tspan y="-748.3" x="56.664"> </tspan></text>
</g>
</g>
</svg>
